<?xml version="1.0" encoding="UTF-8" standalone="no"?>
<!DOCTYPE svg PUBLIC "-//W3C//DTD SVG 1.1//EN" "http://www.w3.org/Graphics/SVG/1.1/DTD/svg11.dtd">
<svg width="100%" height="100%" viewBox="0 0 256 64" version="1.1" xmlns="http://www.w3.org/2000/svg" xmlns:xlink="http://www.w3.org/1999/xlink" xml:space="preserve" style="fill-rule:evenodd;clip-rule:evenodd;stroke-linejoin:round;stroke-miterlimit:1.41421;">
    <g transform="matrix(2.69189,0,0,2.69189,-34.481,-83.6524)">
        <g transform="matrix(1,0,0,1,-1.11446,0)">
            <path d="M26.973,37.649L24.781,46.374L23.475,46.374L21.699,39.131L19.965,46.374L18.688,46.374L16.455,37.649L17.645,37.649L19.403,44.903L21.149,37.649L22.326,37.649L24.09,44.973L25.836,37.649L26.973,37.649Z" style="fill:white;fill-rule:nonzero;"/>
        </g>
        <g transform="matrix(1,0,0,1,-1.11446,0)">
            <path d="M28.01,46.374L28.01,37.649L33.465,37.649L33.465,38.68L29.17,38.68L29.17,41.071L33.172,41.071L33.172,42.102L29.17,42.102L29.17,45.342L33.465,45.342L33.465,46.374L28.01,46.374Z" style="fill:white;fill-rule:nonzero;"/>
        </g>
        <g transform="matrix(1,0,0,1,-1.11446,0)">
            <path d="M40.66,43.696C40.66,44.129 40.578,44.512 40.414,44.844C40.25,45.176 40.029,45.45 39.752,45.665C39.424,45.922 39.072,46.105 38.697,46.212C38.322,46.32 37.838,46.374 37.244,46.374L34.742,46.374L34.742,37.649L37.057,37.649C37.678,37.649 38.144,37.669 38.454,37.71C38.765,37.751 39.063,37.848 39.348,38C39.66,38.168 39.889,38.388 40.033,38.66C40.178,38.931 40.25,39.25 40.25,39.618C40.25,40.028 40.142,40.395 39.925,40.719C39.708,41.043 39.408,41.297 39.026,41.481L39.026,41.528C39.545,41.668 39.947,41.925 40.233,42.298C40.518,42.671 40.66,43.137 40.66,43.696ZM39.043,39.782C39.043,39.571 39.008,39.388 38.938,39.234C38.867,39.08 38.754,38.957 38.598,38.868C38.41,38.762 38.201,38.698 37.971,38.674C37.74,38.651 37.422,38.639 37.016,38.639L35.903,38.639L35.903,41.194L37.221,41.194C37.584,41.194 37.852,41.175 38.024,41.138C38.196,41.101 38.373,41.024 38.557,40.907C38.733,40.793 38.858,40.645 38.932,40.461C39.006,40.278 39.043,40.051 39.043,39.782ZM39.453,43.743C39.453,43.415 39.406,43.144 39.313,42.931C39.219,42.718 39.029,42.538 38.744,42.389C38.561,42.291 38.361,42.229 38.144,42.202C37.927,42.174 37.619,42.161 37.221,42.161L35.903,42.161L35.903,45.383L36.846,45.383C37.354,45.383 37.754,45.36 38.047,45.313C38.34,45.266 38.598,45.166 38.821,45.014C39.039,44.862 39.199,44.689 39.301,44.496C39.403,44.302 39.453,44.051 39.453,43.743Z" style="fill:white;fill-rule:nonzero;"/>
        </g>
        <g transform="matrix(1,0,0,1,-1.11446,0)">
            <path d="M47.322,40.28C47.322,40.659 47.255,41.017 47.12,41.355C46.986,41.693 46.799,41.981 46.561,42.219C46.26,42.516 45.906,42.741 45.5,42.893C45.094,43.045 44.58,43.122 43.959,43.122L42.975,43.122L42.975,46.374L41.815,46.374L41.815,37.649L44.006,37.649C44.522,37.649 44.961,37.692 45.324,37.778C45.688,37.864 46.008,38.002 46.285,38.194C46.61,38.416 46.863,38.699 47.047,39.04C47.231,39.382 47.322,39.795 47.322,40.28ZM46.115,40.309C46.115,40.008 46.064,39.747 45.96,39.524C45.857,39.301 45.699,39.12 45.488,38.979C45.305,38.858 45.091,38.772 44.847,38.721C44.603,38.67 44.299,38.645 43.936,38.645L42.975,38.645L42.975,42.131L43.766,42.131C44.235,42.131 44.613,42.093 44.903,42.017C45.192,41.941 45.432,41.805 45.623,41.61C45.795,41.434 45.92,41.243 45.998,41.036C46.076,40.829 46.115,40.586 46.115,40.309Z" style="fill:white;fill-rule:nonzero;"/>
        </g>
        <g transform="matrix(1,0,0,1,-1.11446,0)">
            <path d="M47.211,46.374L50.153,37.649L51.582,37.649L54.524,46.374L53.299,46.374L52.508,43.936L49.174,43.936L48.383,46.374L47.211,46.374ZM52.186,42.946L50.838,38.832L49.496,42.946L52.186,42.946Z" style="fill:white;fill-rule:nonzero;"/>
        </g>
        <g transform="matrix(1,0,0,1,-1.11446,0)">
            <path d="M59,46.543C58.383,46.543 57.819,46.45 57.307,46.262C56.795,46.075 56.356,45.79 55.988,45.407C55.621,45.02 55.34,44.541 55.145,43.971C54.949,43.401 54.852,42.745 54.852,42.002C54.852,41.299 54.95,40.669 55.148,40.113C55.345,39.556 55.627,39.081 55.994,38.686C56.35,38.303 56.787,38.008 57.307,37.801C57.826,37.594 58.395,37.491 59.012,37.491C59.305,37.491 59.586,37.512 59.856,37.555C60.125,37.598 60.383,37.657 60.629,37.731C60.824,37.79 61.042,37.871 61.282,37.974C61.523,38.078 61.717,38.166 61.865,38.241L61.865,39.641L61.766,39.641C61.621,39.512 61.472,39.39 61.318,39.275C61.163,39.16 60.946,39.036 60.664,38.903C60.43,38.786 60.16,38.688 59.856,38.61C59.551,38.532 59.223,38.493 58.871,38.493C58.031,38.493 57.353,38.809 56.835,39.442C56.318,40.075 56.059,40.916 56.059,41.967C56.059,42.553 56.127,43.065 56.264,43.502C56.401,43.94 56.598,44.311 56.856,44.616C57.106,44.916 57.407,45.146 57.761,45.304C58.114,45.462 58.512,45.541 58.953,45.541C59.281,45.541 59.608,45.518 59.932,45.471C60.256,45.424 60.529,45.354 60.752,45.26L60.752,43.004L58.737,43.004L58.737,41.985L61.901,41.985L61.901,45.793C61.752,45.86 61.554,45.944 61.306,46.045C61.058,46.147 60.826,46.227 60.612,46.286C60.326,46.372 60.069,46.436 59.838,46.479C59.608,46.522 59.328,46.543 59,46.543Z" style="fill:white;fill-rule:nonzero;"/>
        </g>
        <g transform="matrix(1,0,0,1,-1.11446,0)">
            <path d="M63.36,46.374L63.36,37.649L68.815,37.649L68.815,38.68L64.52,38.68L64.52,41.071L68.522,41.071L68.522,42.102L64.52,42.102L64.52,45.342L68.815,45.342L68.815,46.374L63.36,46.374Z" style="fill:white;fill-rule:nonzero;"/>
        </g>
        <g transform="matrix(1,0,0,1,0,-0.742974)">
            <rect x="71.012" y="37.256" width="0.979" height="11.414" style="fill:white;fill-rule:nonzero;"/>
        </g>
        <g transform="matrix(1,0,0,1,1.11446,0)">
            <path d="M79.737,46.374L74.68,46.374L74.68,37.649L75.84,37.649L75.84,45.342L79.737,45.342L79.737,46.374Z" style="fill:white;fill-rule:nonzero;"/>
        </g>
        <g transform="matrix(1,0,0,1,1.11446,0)">
            <path d="M86.715,38.651C87.047,39.034 87.305,39.508 87.488,40.075C87.672,40.641 87.764,41.288 87.764,42.014C87.764,42.721 87.674,43.36 87.494,43.93C87.315,44.5 87.055,44.979 86.715,45.366C86.36,45.772 85.945,46.072 85.47,46.265C84.995,46.458 84.473,46.555 83.903,46.555C83.313,46.555 82.781,46.456 82.309,46.256C81.836,46.057 81.43,45.76 81.09,45.366C80.754,44.979 80.496,44.502 80.317,43.936C80.137,43.37 80.047,42.729 80.047,42.014C80.047,41.28 80.138,40.635 80.32,40.081C80.501,39.526 80.76,39.049 81.096,38.651C81.432,38.264 81.837,37.97 82.312,37.769C82.786,37.568 83.317,37.467 83.903,37.467C84.496,37.467 85.031,37.571 85.508,37.778C85.985,37.985 86.387,38.276 86.715,38.651ZM86.557,42.014C86.557,41.436 86.494,40.924 86.369,40.479C86.244,40.034 86.069,39.665 85.842,39.372C85.612,39.071 85.333,38.845 85.007,38.695C84.681,38.544 84.315,38.469 83.908,38.469C83.487,38.469 83.118,38.542 82.804,38.689C82.489,38.835 82.211,39.063 81.969,39.372C81.738,39.668 81.562,40.041 81.439,40.491C81.316,40.94 81.254,41.448 81.254,42.014C81.254,43.159 81.494,44.035 81.975,44.642C82.455,45.249 83.1,45.553 83.908,45.553C84.717,45.553 85.361,45.249 85.839,44.642C86.318,44.035 86.557,43.159 86.557,42.014Z" style="fill:white;fill-rule:nonzero;"/>
        </g>
        <g transform="matrix(1,0,0,1,1.11446,0)">
            <path d="M92.686,46.543C92.069,46.543 91.504,46.45 90.992,46.262C90.481,46.075 90.041,45.79 89.674,45.407C89.307,45.02 89.026,44.541 88.83,43.971C88.635,43.401 88.537,42.745 88.537,42.002C88.537,41.299 88.636,40.669 88.833,40.113C89.03,39.556 89.313,39.081 89.68,38.686C90.035,38.303 90.473,38.008 90.992,37.801C91.512,37.594 92.08,37.491 92.697,37.491C92.99,37.491 93.272,37.512 93.541,37.555C93.811,37.598 94.069,37.657 94.315,37.731C94.51,37.79 94.728,37.871 94.968,37.974C95.208,38.078 95.403,38.166 95.551,38.241L95.551,39.641L95.451,39.641C95.307,39.512 95.157,39.39 95.003,39.275C94.849,39.16 94.631,39.036 94.35,38.903C94.115,38.786 93.846,38.688 93.541,38.61C93.237,38.532 92.908,38.493 92.557,38.493C91.717,38.493 91.038,38.809 90.521,39.442C90.003,40.075 89.744,40.916 89.744,41.967C89.744,42.553 89.813,43.065 89.949,43.502C90.086,43.94 90.283,44.311 90.541,44.616C90.791,44.916 91.093,45.146 91.446,45.304C91.8,45.462 92.197,45.541 92.639,45.541C92.967,45.541 93.293,45.518 93.617,45.471C93.942,45.424 94.215,45.354 94.438,45.26L94.438,43.004L92.422,43.004L92.422,41.985L95.586,41.985L95.586,45.793C95.438,45.86 95.239,45.944 94.991,46.045C94.743,46.147 94.512,46.227 94.297,46.286C94.012,46.372 93.754,46.436 93.524,46.479C93.293,46.522 93.014,46.543 92.686,46.543Z" style="fill:white;fill-rule:nonzero;"/>
        </g>
        <g transform="matrix(1,0,0,1,1.11446,0)">
            <path d="M103.215,38.651C103.547,39.034 103.805,39.508 103.988,40.075C104.172,40.641 104.264,41.288 104.264,42.014C104.264,42.721 104.174,43.36 103.994,43.93C103.815,44.5 103.555,44.979 103.215,45.366C102.86,45.772 102.445,46.072 101.97,46.265C101.495,46.458 100.973,46.555 100.403,46.555C99.813,46.555 99.281,46.456 98.809,46.256C98.336,46.057 97.93,45.76 97.59,45.366C97.254,44.979 96.996,44.502 96.817,43.936C96.637,43.37 96.547,42.729 96.547,42.014C96.547,41.28 96.638,40.635 96.82,40.081C97.001,39.526 97.26,39.049 97.596,38.651C97.932,38.264 98.337,37.97 98.812,37.769C99.286,37.568 99.817,37.467 100.403,37.467C100.996,37.467 101.531,37.571 102.008,37.778C102.485,37.985 102.887,38.276 103.215,38.651ZM103.057,42.014C103.057,41.436 102.994,40.924 102.869,40.479C102.744,40.034 102.569,39.665 102.342,39.372C102.112,39.071 101.833,38.845 101.507,38.695C101.181,38.544 100.815,38.469 100.408,38.469C99.987,38.469 99.618,38.542 99.304,38.689C98.989,38.835 98.711,39.063 98.469,39.372C98.238,39.668 98.062,40.041 97.939,40.491C97.816,40.94 97.754,41.448 97.754,42.014C97.754,43.159 97.994,44.035 98.475,44.642C98.955,45.249 99.6,45.553 100.408,45.553C101.217,45.553 101.861,45.249 102.339,44.642C102.818,44.035 103.057,43.159 103.057,42.014Z" style="fill:white;fill-rule:nonzero;"/>
        </g>
    </g>
</svg>
